<svg height="470pt" viewBox="-3 0 470 470.0721" width="470pt" xmlns="http://www.w3.org/2000/svg"><path d="m384.035156 350.070312h-16v-296c.003906-2.335937 1.027344-4.550781 2.800782-6.070312l56-48 10.398437 12.144531-53.199219 45.609375zm0 0" fill="#c0ab91"/><path d="m240.035156 150.070312h200v280h-200zm0 0" fill="#bdfdff"/><path d="m312.035156 330.070312c.019532 5.3125-2.082031 10.410157-5.839844 14.164063-3.753906 3.753906-8.851562 5.855469-14.160156 5.835937h-232c-11.042968 0-20-8.953124-20-20 0-11.042968 8.957032-20 20-20h232c11.046875 0 20 8.957032 20 20zm0 0" fill="#ffd422"/><path d="m312.035156 290.070312c.019532 5.3125-2.082031 10.410157-5.839844 14.164063-3.753906 3.753906-8.851562 5.855469-14.160156 5.835937h-232c-11.042968 0-20-8.953124-20-20 0-11.042968 8.957032-20 20-20h232c11.046875 0 20 8.957032 20 20zm0 0" fill="#ee8700"/><path d="m312.035156 370.070312c.019532 5.3125-2.082031 10.410157-5.839844 14.164063-3.753906 3.753906-8.851562 5.855469-14.160156 5.835937h-232c-11.042968 0-20-8.953124-20-20 0-11.042968 8.957032-20 20-20h232c11.046875 0 20 8.957032 20 20zm0 0" fill="#ff9811"/><path d="m240.035156 94.070312h200v56h-200zm0 0" fill="#57a4ff"/><path d="m464.035156 450.070312c.019532 5.3125-2.082031 10.410157-5.839844 14.164063-3.753906 3.753906-8.851562 5.855469-14.160156 5.835937h-424c-11.042968 0-19.9999998-8.953124-19.9999998-20 0-11.042968 8.9570318-20 19.9999998-20h424c11.046875 0 20 8.957032 20 20zm0 0" fill="#787680"/><path d="m328.035156 390.070312v8c0 17.675782-14.324218 32-32 32h-240c-17.671875 0-32-14.324218-32-32v-8zm0 0" fill="#a78966"/><path d="m272.035156 250.070312c.019532 5.3125-2.082031 10.410157-5.839844 14.164063-3.753906 3.753906-8.851562 5.855469-14.160156 5.835937h-12v80c0 13.257813-10.746094 24-24 24s-24-10.742187-24-24v-80h-32v40c-.0625 8.8125-7.191406 15.9375-16 16-8.824218-.023437-15.972656-7.171874-16-16v-40h-28c-11.042968 0-20-8.953124-20-20 0-11.042968 8.957032-20 20-20h152c11.046875 0 20 8.957032 20 20zm0 0" fill="#ffbcab"/><path d="m184.035156 198.070312h-16v-16c0-17.671874 14.328125-32 32-32h8v16h-8c-8.835937 0-16 7.164063-16 16zm0 0" fill="#64c37d"/><path d="m200.035156 206.070312c0 13.257813-10.746094 24-24 24s-24-10.742187-24-24c0-13.253906 10.746094-24 24-24s24 10.746094 24 24zm0 0" fill="#ff5023"/><path d="m176.035156 198.070312c0 4.421876-3.582031 8-8 8-4.417968 0-8-3.578124-8-8 0-4.417968 3.582032-8 8-8 4.417969 0 8 3.582032 8 8zm0 0" fill="#fff"/><path d="m268.035156 102.070312h16c6.628906 0 12 5.375 12 12 0 6.628907-5.371094 12-12 12h-16c-6.625 0-12-5.371093-12-12 0-6.625 5.375-12 12-12zm0 0" fill="#9bc9ff"/><path d="m104.035156 238.070312h40c4.417969 0 8 3.582032 8 8 0 4.421876-3.582031 8-8 8h-40c-4.417968 0-8-3.578124-8-8 0-4.417968 3.582032-8 8-8zm0 0" fill="#ffc3b4"/></svg>