<svg height="511pt" viewBox="-14 0 511 511.9998" width="511pt" xmlns="http://www.w3.org/2000/svg"><path d="m399.785156 217.613281c-45.757812 0-82.851562 37.441407-82.851562 83.632813 0 46.203125 37.09375 83.644531 82.851562 83.644531 45.765625 0 82.859375-37.441406 82.859375-83.644531 0-46.191406-37.09375-83.632813-82.859375-83.632813zm0 125.625c-22.964844 0-41.589844-18.800781-41.589844-41.992187 0-23.179688 18.625-41.980469 41.589844-41.980469 22.972656 0 41.597656 18.800781 41.597656 41.980469 0 23.191406-18.625 41.992187-41.597656 41.992187zm0 0" fill="#fdd79b"/><path d="m399.78125 217.613281c-45.757812 0-82.84375 37.441407-82.84375 83.636719 0 40.117188 27.960938 73.625 65.269531 81.753906 6.980469-12.445312 12.578125-25.765625 16.574219-39.773437-22.496094-.539063-40.585938-19.128907-40.585938-41.980469 0-23.179688 18.628907-41.980469 41.585938-41.980469 2.066406 0 4.097656.152344 6.082031.445313v-41.878906c-2.015625-.152344-4.039062-.222657-6.082031-.222657zm0 0" fill="#fccd7f"/><path d="m186.230469 477.964844c-102.578125 0-185.730469-83.152344-185.730469-185.730469v-106.726563c0-14.949218 12.121094-27.070312 27.070312-27.070312h317.316407c14.949219 0 27.070312 12.121094 27.070312 27.070312v106.726563c0 102.574219-83.152343 185.730469-185.726562 185.730469zm0 0" fill="#fef1da"/><path d="m371.960938 185.511719v106.722656c0 102.570313-83.15625 185.730469-185.730469 185.730469-46.210938 0-88.480469-16.871094-120.976563-44.8125 26.167969 17.847656 57.804688 28.277344 91.867188 28.277344h9.890625c92.457031 0 168.109375-75.648438 168.109375-168.097657v-80.890625c0-13.144531-10.664063-23.796875-23.808594-23.796875h-293.6875c-6.726562 0-12.808594 2.789063-17.125 7.285157v-10.417969c0-14.957031 12.117188-27.078125 27.074219-27.078125h317.3125c14.945312.003906 27.074219 12.121094 27.074219 27.078125zm0 0" fill="#fde6bf"/><path d="m371.957031 237.925781v52.546875c0 17.660156-2.421875 34.734375-6.929687 50.933594h-357.597656c-4.507813-16.199219-6.929688-33.273438-6.929688-50.933594v-52.546875zm0 0" fill="#ea4444"/><path d="m22.285156 492.5625 2.589844-9.207031c5.191406-18.476563 21.902344-31.226563 40.929688-31.226563h240.847656c19.023437 0 35.738281 12.75 40.929687 31.226563l2.585938 9.207031c2.738281 9.75-4.515625 19.4375-14.550781 19.4375h-298.777344c-10.039063 0-17.292969-9.6875-14.554688-19.4375zm0 0" fill="#ea4444"/><path d="m335.617188 512h-298.78125c-9.648438 0-16.726563-8.964844-14.816407-18.316406h283.746094c10.03125 0 17.285156-9.6875 14.546875-19.433594l-2.582031-9.207031c-1.292969-4.589844-3.285157-8.824219-5.863281-12.597657 16.8125 2.097657 31.003906 14.144532 35.714843 30.910157l2.582031 9.210937c2.738282 9.746094-4.515624 19.433594-14.546874 19.433594zm0 0" fill="#d93131"/><g fill="#fdd79b"><path d="m186.386719 116.492188c-1.828125 0-3.660157-.65625-5.121094-1.976563-8.273437-7.5-11.984375-19.226563-9.453125-29.871094 3.035156-12.765625 11.664062-20.945312 19.28125-28.164062 2.347656-2.226563 4.566406-4.328125 6.632812-6.542969 5.238282-5.605469 10.84375-15.101562 9.398438-23.414062-1.019531-5.867188-5.53125-8.621094-8.125-9.742188-5.441406-2.351562-11.882812-1.933594-16.417969 1.058594-2.035156 1.34375-3.773437 4.199218-4.230469 6.949218-.195312 1.195313-.242187 2.859376.667969 4.035157.832031 1.074219 2.054688 1.488281 2.847657 1.402343.386718-.039062.605468-.144531.863281-.667968 1.878906-3.777344 6.457031-5.3125 10.234375-3.4375 3.773437 1.875 5.308594 6.457031 3.433594 10.230468-2.582032 5.195313-7.332032 8.5-13.027344 9.0625-6.191406.613282-12.484375-2.164062-16.421875-7.246093-3.335938-4.3125-4.636719-9.949219-3.65625-15.875 1.152343-6.933594 5.320312-13.519531 10.882812-17.191407 8.847657-5.839843 20.675781-6.734374 30.871094-2.332031 9.230469 3.984375 15.46875 11.6875 17.113281 21.140625.765625 4.394532 2.066406 20.019532-13.28125 36.449219-2.386718 2.550781-4.878906 4.914063-7.289062 7.199219-6.945313 6.585937-12.945313 12.273437-14.929688 20.613281-1.246094 5.234375.707032 11.273437 4.855469 15.03125 3.121094 2.832031 3.355469 7.65625.527344 10.78125-1.503907 1.664063-3.578125 2.507813-5.65625 2.507813zm0 0"/><path d="m238.191406 145.015625c-.753906 0-1.519531-.109375-2.277344-.347656-6.160156-1.921875-11.414062-6.65625-14.414062-12.984375-2.363281-4.984375-3.320312-10.765625-2.84375-17.171875.71875-9.734375 4.292969-15.808594 7.742188-21.679688 1.273437-2.164062 2.589843-4.402343 3.792968-6.882812 1.566406-3.230469 4.539063-11.371094-1.628906-17.128907-3.082031-2.878906-3.246094-7.707031-.371094-10.789062 2.878906-3.078125 7.707032-3.246094 10.785156-.367188 9.289063 8.671876 11.183594 22.058594 4.949219 34.9375-1.472656 3.035157-3.011719 5.652344-4.371093 7.964844-3.03125 5.15625-5.222657 8.882813-5.679688 15.074219-.273438 3.6875.21875 6.972656 1.417969 9.507813 1.160156 2.453124 3.09375 4.300781 5.167969 4.949218 4.023437 1.257813 6.265624 5.535156 5.011718 9.558594-1.019531 3.265625-4.03125 5.359375-7.28125 5.359375zm0 0"/><path d="m144.5625 145.015625c-.753906 0-1.519531-.109375-2.273438-.347656-6.164062-1.921875-11.414062-6.652344-14.414062-12.980469-2.363281-4.988281-3.320312-10.765625-2.847656-17.175781.722656-9.734375 4.292968-15.808594 7.742187-21.679688 1.273438-2.164062 2.589844-4.402343 3.792969-6.882812 1.566406-3.230469 4.539062-11.371094-1.628906-17.128907-3.078125-2.878906-3.246094-7.707031-.367188-10.789062 2.875-3.078125 7.703125-3.246094 10.785156-.367188 9.289063 8.671876 11.183594 22.0625 4.945313 34.9375-1.472656 3.035157-3.011719 5.65625-4.367187 7.964844-3.035157 5.15625-5.222657 8.882813-5.683594 15.074219-.273438 3.6875.21875 6.976563 1.417968 9.507813 1.164063 2.453124 3.09375 4.304687 5.167969 4.953124 4.023438 1.253907 6.269531 5.535157 5.011719 9.554688-1.019531 3.265625-4.03125 5.359375-7.28125 5.359375zm0 0"/></g></svg>